<svg width="100" height="38" viewBox="0 0 100 38" fill="none" xmlns="http://www.w3.org/2000/svg">
<g clip-path="url(#clip0_25_1264)">
<path d="M91.7678 11.0352H9.61877V26.5047H91.7678V11.0352Z" fill="#DC3200" stroke="black"/>
<path d="M9.17899 1.24535L0.0302734 31.1602L9.47606 35.2518L18.6248 5.33697L9.17899 1.24535Z" fill="#21201E"/>
<path d="M90.4616 3.36643L81.3129 33.2812L90.7587 37.3729L99.9074 7.45806L90.4616 3.36643Z" fill="#21201E"/>
<path d="M25.1531 21.4513V21.2434C25.4526 21.2434 25.6273 21.1774 25.6772 21.0454V16.0655C25.6273 15.9335 25.4526 15.8675 25.1531 15.8675V15.6596H26.3676L28.1396 20.2633L29.9115 15.6596H31.1427V15.8675C30.8432 15.8675 30.6685 15.9335 30.6186 16.0655V21.0454C30.6685 21.1774 30.8432 21.2434 31.1427 21.2434V21.4513H29.3292V21.2434C29.6286 21.2434 29.8033 21.1774 29.8533 21.0454V16.6001L27.9898 21.4513H27.865L25.96 16.5407V21.0454C26.0099 21.1774 26.1846 21.2434 26.4841 21.2434V21.4513H25.1531ZM34.2848 21.4513V21.2434C34.5399 21.2434 34.7007 21.2038 34.7673 21.1246L34.3014 19.6099H32.7042L32.2716 21.0652C32.3271 21.184 32.499 21.2434 32.7874 21.2434V21.4513H31.4231V21.2434C31.7337 21.2434 31.9084 21.1741 31.9472 21.0355L33.561 15.6596H33.9604L35.5742 21.0355C35.613 21.1741 35.7905 21.2434 36.1066 21.2434V21.4513H34.2848ZM33.4945 16.9763L32.804 19.2831H34.2016L33.4945 16.9763ZM36.3803 21.4513V21.2434C36.6798 21.2434 36.8545 21.1774 36.9044 21.0454V16.0655C36.8545 15.9335 36.6798 15.8675 36.3803 15.8675V15.6596H38.2604C38.948 15.6596 39.4694 15.8081 39.8243 16.1051C40.1792 16.4021 40.3567 16.742 40.3567 17.1248C40.3567 17.4878 40.2652 17.808 40.0822 18.0852C39.8992 18.3558 39.6274 18.5538 39.2669 18.6792L40.3734 21.0355C40.4288 21.1741 40.6118 21.2434 40.9224 21.2434V21.4513H40.5647C40.1765 21.4513 39.9241 21.4249 39.8077 21.3721C39.6912 21.3193 39.5747 21.1741 39.4583 20.9365L38.4517 18.8178H37.6697V21.0454C37.7196 21.1774 37.8943 21.2434 38.1938 21.2434V21.4513H36.3803ZM37.6697 15.9962V18.4812H38.3602C38.8039 18.4812 39.1089 18.3789 39.2753 18.1743C39.4416 17.9697 39.5248 17.6232 39.5248 17.1347C39.5248 16.7717 39.4305 16.4912 39.242 16.2932C39.059 16.0952 38.7318 15.9962 38.2604 15.9962H37.6697ZM41.2141 21.4513V21.2434C41.5136 21.2434 41.6883 21.1774 41.7382 21.0454V16.0655C41.6883 15.9335 41.5136 15.8675 41.2141 15.8675V15.6596H43.011V15.8675C42.7115 15.8675 42.5368 15.9335 42.4869 16.0655V21.0454C42.5368 21.1774 42.7115 21.2434 43.011 21.2434V21.4513H41.2141ZM44.1174 21.4513V21.2434C44.2449 21.2434 44.3475 21.2335 44.4252 21.2137L42.5285 18.3426L44.5666 15.9368C44.4889 15.8906 44.3475 15.8675 44.1423 15.8675V15.6596H45.4484V15.8675C45.2155 15.8675 45.0435 15.9434 44.9326 16.0952L43.2605 18.0654L45.2155 21.085C45.3042 21.1906 45.4789 21.2434 45.7396 21.2434V21.4513H44.1174ZM46.0316 21.4513V21.2434C46.3311 21.2434 46.5058 21.1774 46.5557 21.0454V16.0655C46.5058 15.9335 46.3311 15.8675 46.0316 15.8675V15.6596H49.3841V16.6199H49.2094C49.2094 16.2635 49.1539 16.0556 49.043 15.9962H47.321V18.2733H48.4857C48.5966 18.2139 48.652 18.006 48.652 17.6496H48.8267V19.2336H48.652C48.652 18.8772 48.5966 18.6693 48.4857 18.6099H47.321V21.1147H49.2177C49.3564 21.0421 49.4811 20.8342 49.5921 20.491H49.7584L49.5588 21.4513H46.0316ZM50.0482 15.6596H54.2243V16.6199H54.0496C54.0496 16.2635 53.9941 16.0556 53.8832 15.9962H52.5189V21.0454C52.5688 21.1774 52.7435 21.2434 53.043 21.2434V21.4513H51.2295V21.2434C51.529 21.2434 51.7037 21.1774 51.7536 21.0454V15.9962H50.3893C50.2784 16.0556 50.2229 16.2635 50.2229 16.6199H50.0482V15.6596ZM54.7241 21.4513V21.2434C55.0236 21.2434 55.1983 21.1774 55.2482 21.0454V16.0655C55.1983 15.9335 55.0236 15.8675 54.7241 15.8675V15.6596H56.6042C57.2863 15.6596 57.8049 15.8147 58.1598 16.1249C58.5203 16.4351 58.7006 16.7816 58.7006 17.1644C58.7006 17.6595 58.5342 18.0588 58.2014 18.3624C57.8687 18.666 57.3695 18.8178 56.704 18.8178H56.0136V21.0454C56.0635 21.1774 56.2382 21.2434 56.5376 21.2434V21.4513H54.7241ZM56.0136 15.9962V18.4812H56.704C57.1311 18.4812 57.4305 18.3822 57.6025 18.1842C57.7799 17.9796 57.8687 17.643 57.8687 17.1743C57.8687 16.3889 57.4472 15.9962 56.6042 15.9962H56.0136ZM59.1598 21.4513V21.2434C59.4593 21.2434 59.634 21.1774 59.6839 21.0454V16.0655C59.634 15.9335 59.4593 15.8675 59.1598 15.8675V15.6596H60.9734V15.8675C60.6739 15.8675 60.4992 15.9335 60.4493 16.0655V21.1147H62.346C62.4846 21.0421 62.6094 20.8342 62.7203 20.491H62.8867L62.687 21.4513H59.1598ZM65.7245 21.4513V21.2434C65.9796 21.2434 66.1404 21.2038 66.207 21.1246L65.7411 19.6099H64.1439L63.7113 21.0652C63.7668 21.184 63.9387 21.2434 64.2271 21.2434V21.4513H62.8628V21.2434C63.1733 21.2434 63.348 21.1741 63.3869 21.0355L65.0007 15.6596H65.4L67.0139 21.0355C67.0527 21.1741 67.2302 21.2434 67.5463 21.2434V21.4513H65.7245ZM64.9342 16.9763L64.2437 19.2831H65.6413L64.9342 16.9763ZM70.2271 15.8972C69.7501 15.8972 69.3536 16.1315 69.0375 16.6001C68.7214 17.0687 68.5633 17.676 68.5633 18.4218C68.5633 19.293 68.7297 19.9762 69.0624 20.4712C69.3952 20.9662 69.7945 21.2137 70.2604 21.2137C70.5376 21.2137 70.8122 21.1015 71.0839 20.8771C71.3557 20.6461 71.5304 20.4019 71.608 20.1445L71.8077 20.2633C71.6801 20.6263 71.4777 20.9332 71.2004 21.184C70.9286 21.4282 70.5598 21.5504 70.094 21.5504C69.3564 21.5504 68.7713 21.2665 68.3387 20.6989C67.9117 20.1247 67.6981 19.4382 67.6981 18.6396C67.6981 17.7156 67.9449 16.973 68.4385 16.412C68.9376 15.8444 69.5311 15.5605 70.2188 15.5605C70.3796 15.5605 70.5654 15.61 70.7761 15.7091C70.9869 15.8081 71.1089 15.8576 71.1422 15.8576C71.2087 15.8576 71.242 15.7916 71.242 15.6596H71.4333L71.5165 16.9169H71.3335C71.2947 16.6199 71.1838 16.3757 71.0007 16.1843C70.8233 15.9929 70.5654 15.8972 70.2271 15.8972ZM72.3694 21.4513V21.2434C72.6688 21.2434 72.8435 21.1774 72.8935 21.0454V16.0655C72.8435 15.9335 72.6688 15.8675 72.3694 15.8675V15.6596H75.7219V16.6199H75.5472C75.5472 16.2635 75.4917 16.0556 75.3808 15.9962H73.6588V18.2733H74.8234C74.9344 18.2139 74.9898 18.006 74.9898 17.6496H75.1645V19.2336H74.9898C74.9898 18.8772 74.9344 18.6693 74.8234 18.6099H73.6588V21.1147H75.5555C75.6941 21.0421 75.8189 20.8342 75.9298 20.491H76.0962L75.8966 21.4513H72.3694Z" fill="white"/>
<path d="M17.9281 2.04308V0.392379H23.0168V2.04308H21.244V8.04465H19.6917V2.04308H17.9281ZM24.7487 8.04465V6.52513H27.9912V8.04465H24.7487ZM24.7487 1.9119V0.392379H27.9912V1.9119H24.7487ZM24.7487 4.7651V3.27838H27.8075V4.7651H24.7487ZM23.72 0.392379H25.208V8.04465H23.72V0.392379ZM30.5773 4.21851C30.5773 4.68493 30.6661 5.08941 30.8437 5.43195C31.0213 5.76718 31.2539 6.02226 31.5418 6.19717C31.8357 6.37208 32.1572 6.45954 32.5063 6.45954C32.8125 6.45954 33.0818 6.41216 33.3146 6.31742C33.5473 6.22269 33.7555 6.09879 33.9392 5.94574C34.1229 5.79269 34.2851 5.62872 34.426 5.45381V7.4434C34.1688 7.6839 33.8872 7.87339 33.581 8.01185C33.2747 8.15032 32.886 8.21956 32.4144 8.21956C31.9 8.21956 31.4255 8.12482 30.9907 7.93533C30.5558 7.74584 30.1823 7.47254 29.87 7.11544C29.5577 6.75835 29.3158 6.33563 29.1444 5.84735C28.973 5.35907 28.8872 4.81611 28.8872 4.21851C28.8872 3.62092 28.973 3.07795 29.1444 2.58967C29.3158 2.10139 29.5577 1.67869 29.87 1.32158C30.1823 0.964478 30.5558 0.691181 30.9907 0.501697C31.4255 0.312212 31.9 0.21747 32.4144 0.21747C32.886 0.21747 33.2747 0.286706 33.581 0.425175C33.8872 0.563644 34.1688 0.753129 34.426 0.993629V2.98322C34.2851 2.80831 34.1229 2.64433 33.9392 2.49129C33.7555 2.33096 33.5473 2.20706 33.3146 2.11961C33.0818 2.02486 32.8125 1.97749 32.5063 1.97749C32.1572 1.97749 31.8357 2.06495 31.5418 2.23986C31.2539 2.41476 31.0213 2.66985 30.8437 3.00508C30.6661 3.34032 30.5773 3.7448 30.5773 4.21851ZM36.1269 4.84163V3.17999H40.9952V4.84163H36.1269ZM40.0123 0.392379H41.5647V8.04465H40.0123V0.392379ZM35.6952 0.392379H37.2475V8.04465H35.6952V0.392379ZM47.3527 0.392379H48.8499V8.42726L44.4042 3.73751V8.04465H42.9161V0.00976562L47.3527 4.69951V0.392379ZM51.4856 4.21851C51.4856 4.67037 51.5591 5.0712 51.7061 5.42101C51.8593 5.76355 52.0706 6.0332 52.3399 6.22997C52.6155 6.42674 52.9369 6.52513 53.3044 6.52513C53.6657 6.52513 53.9811 6.42674 54.2505 6.22997C54.526 6.0332 54.7373 5.76355 54.8843 5.42101C55.0375 5.0712 55.1139 4.67037 55.1139 4.21851C55.1139 3.76666 55.0404 3.36948 54.8934 3.02695C54.7465 2.67713 54.5383 2.40383 54.2688 2.20706C53.9995 2.01029 53.678 1.9119 53.3044 1.9119C52.9369 1.9119 52.6155 2.01029 52.3399 2.20706C52.0706 2.40383 51.8593 2.67713 51.7061 3.02695C51.5591 3.36948 51.4856 3.76666 51.4856 4.21851ZM49.8414 4.21851C49.8414 3.6282 49.9272 3.08889 50.0986 2.60061C50.2763 2.11232 50.5212 1.68962 50.8335 1.33252C51.1458 0.975408 51.5132 0.702113 51.9357 0.512629C52.3583 0.315857 52.8146 0.21747 53.3044 0.21747C53.8004 0.21747 54.2567 0.315857 54.673 0.512629C55.0955 0.702113 55.4629 0.975408 55.7752 1.33252C56.0876 1.68962 56.3295 2.11232 56.5009 2.60061C56.6725 3.08889 56.7581 3.6282 56.7581 4.21851C56.7581 4.80883 56.6725 5.35177 56.5009 5.84735C56.3356 6.34294 56.0967 6.77291 55.7844 7.13731C55.4784 7.50171 55.1139 7.78594 54.6914 7.98999C54.2688 8.18676 53.8066 8.28515 53.3044 8.28515C52.7962 8.28515 52.3307 8.18676 51.9082 7.98999C51.4856 7.78594 51.1182 7.50171 50.8059 7.13731C50.4999 6.77291 50.261 6.34294 50.0895 5.84735C49.9241 5.35177 49.8414 4.80883 49.8414 4.21851ZM58.9103 4.24038V3.43142H59.9482C60.1257 3.43142 60.2758 3.39863 60.3983 3.33304C60.5269 3.26745 60.6248 3.17634 60.6922 3.05974C60.7595 2.93584 60.7933 2.78645 60.7933 2.61154C60.7933 2.34917 60.7198 2.1524 60.5728 2.02122C60.4259 1.89004 60.2175 1.82445 59.9482 1.82445H59.3052V6.61258H60.0952C60.2973 6.61258 60.4778 6.58344 60.6371 6.52513C60.7962 6.45954 60.9219 6.3575 61.0137 6.21904C61.1116 6.07327 61.1607 5.8765 61.1607 5.62872C61.1607 5.46839 61.1331 5.32991 61.078 5.21331C61.0229 5.09671 60.9463 5.00195 60.8484 4.92908C60.7503 4.85621 60.6371 4.80518 60.5085 4.77604C60.386 4.73959 60.2482 4.72138 60.0952 4.72138H58.9103V3.71565H60.2697C60.582 3.71565 60.8851 3.75573 61.1791 3.8359C61.473 3.91607 61.7394 4.04726 61.9782 4.22945C62.217 4.40436 62.4068 4.63027 62.5477 4.90722C62.6947 5.17686 62.7681 5.50482 62.7681 5.89108C62.7681 6.40123 62.664 6.813 62.4558 7.12638C62.2538 7.43975 61.9659 7.67297 61.5924 7.82601C61.2187 7.97178 60.7778 8.04465 60.2697 8.04465H57.7529V0.392379H60.1135C60.5605 0.392379 60.9524 0.465257 61.2893 0.611016C61.6321 0.749485 61.9016 0.964478 62.0976 1.25599C62.2997 1.54022 62.4007 1.90097 62.4007 2.33824C62.4007 2.73907 62.2997 3.08161 62.0976 3.36583C61.9016 3.65006 61.6321 3.8687 61.2893 4.02174C60.9524 4.16751 60.5605 4.24038 60.1135 4.24038H58.9103ZM65.1293 4.21851C65.1293 4.67037 65.2028 5.0712 65.3498 5.42101C65.5028 5.76355 65.7141 6.0332 65.9836 6.22997C66.2591 6.42674 66.5806 6.52513 66.948 6.52513C67.3094 6.52513 67.6246 6.42674 67.8941 6.22997C68.1697 6.0332 68.381 5.76355 68.5279 5.42101C68.681 5.0712 68.7576 4.67037 68.7576 4.21851C68.7576 3.76666 68.6841 3.36948 68.5371 3.02695C68.3902 2.67713 68.182 2.40383 67.9125 2.20706C67.643 2.01029 67.3215 1.9119 66.948 1.9119C66.5806 1.9119 66.2591 2.01029 65.9836 2.20706C65.7141 2.40383 65.5028 2.67713 65.3498 3.02695C65.2028 3.36948 65.1293 3.76666 65.1293 4.21851ZM63.4851 4.21851C63.4851 3.6282 63.5709 3.08889 63.7423 2.60061C63.92 2.11232 64.1648 1.68962 64.4771 1.33252C64.7895 0.975408 65.1569 0.702113 65.5794 0.512629C66.0019 0.315857 66.4581 0.21747 66.948 0.21747C67.444 0.21747 67.9002 0.315857 68.3167 0.512629C68.7392 0.702113 69.1066 0.975408 69.4189 1.33252C69.7312 1.68962 69.9732 2.11232 70.1446 2.60061C70.316 3.08889 70.4018 3.6282 70.4018 4.21851C70.4018 4.80883 70.316 5.35177 70.1446 5.84735C69.9792 6.34294 69.7404 6.77291 69.4281 7.13731C69.1219 7.50171 68.7576 7.78594 68.335 7.98999C67.9125 8.18676 67.4501 8.28515 66.948 8.28515C66.4397 8.28515 65.9744 8.18676 65.5519 7.98999C65.1293 7.78594 64.7619 7.50171 64.4496 7.13731C64.1434 6.77291 63.9045 6.34294 63.7331 5.84735C63.5678 5.35177 63.4851 4.80883 63.4851 4.21851ZM72.6732 4.21851C72.6732 4.67037 72.7467 5.0712 72.8936 5.42101C73.0466 5.76355 73.2579 6.0332 73.5274 6.22997C73.803 6.42674 74.1245 6.52513 74.4919 6.52513C74.8532 6.52513 75.1685 6.42674 75.438 6.22997C75.7136 6.0332 75.9248 5.76355 76.0718 5.42101C76.2248 5.0712 76.3014 4.67037 76.3014 4.21851C76.3014 3.76666 76.2279 3.36948 76.081 3.02695C75.934 2.67713 75.7259 2.40383 75.4564 2.20706C75.1869 2.01029 74.8654 1.9119 74.4919 1.9119C74.1245 1.9119 73.803 2.01029 73.5274 2.20706C73.2579 2.40383 73.0466 2.67713 72.8936 3.02695C72.7467 3.36948 72.6732 3.76666 72.6732 4.21851ZM71.029 4.21851C71.029 3.6282 71.1148 3.08889 71.2862 2.60061C71.4638 2.11232 71.7087 1.68962 72.021 1.33252C72.3333 0.975408 72.7007 0.702113 73.1232 0.512629C73.5458 0.315857 74.0019 0.21747 74.4919 0.21747C74.9879 0.21747 75.444 0.315857 75.8605 0.512629C76.283 0.702113 76.6505 0.975408 76.9628 1.33252C77.2751 1.68962 77.517 2.11232 77.6884 2.60061C77.8598 3.08889 77.9456 3.6282 77.9456 4.21851C77.9456 4.80883 77.8598 5.35177 77.6884 5.84735C77.5231 6.34294 77.2843 6.77291 76.972 7.13731C76.6657 7.50171 76.3014 7.78594 75.8789 7.98999C75.4564 8.18676 74.994 8.28515 74.4919 8.28515C73.9836 8.28515 73.5182 8.18676 73.0957 7.98999C72.6732 7.78594 72.3057 7.50171 71.9934 7.13731C71.6872 6.77291 71.4484 6.34294 71.277 5.84735C71.1116 5.35177 71.029 4.80883 71.029 4.21851ZM80.5936 4.14199L80.2078 8.04465H78.5728L79.6108 0.00976562L82.348 4.67765L85.0945 0.00976562L86.1324 8.04465H84.4974L84.1116 4.14199L82.348 7.33408L80.5936 4.14199Z" fill="white"/>
</g>
<defs>
<clipPath id="clip0_25_1264">
<rect width="100" height="37.5394" fill="white"/>
</clipPath>
</defs>
</svg>
